<svg width="24" height="24" fill="none" xmlns="http://www.w3.org/2000/svg"><path d="M11.59 16.763l-3.14 3.09c-.57.561-1.329.87-2.134.87-1.665 0-3.02-1.332-3.02-2.972 0-.794.314-1.54.885-2.101l5.63-5.543c1.143-1.123 3.133-1.122 4.271.001L15 9.207c-1.63-1.609-4.474-1.609-6.105-.003l-5.63 5.543A4.187 4.187 0 002 17.751C2 20.094 3.936 22 6.316 22a4.32 4.32 0 003.051-1.245l3.975-3.913c-.181.017-.36.052-.544.052-.415 0-.819-.047-1.209-.131z" fill="#82B284"/><path d="M17.685 2c-1.152 0-2.235.44-3.05 1.241L10.66 7.143c.182-.017.36-.052.544-.052.413 0 .811.057 1.2.14l3.147-3.09a3.026 3.026 0 012.134-.868c1.665 0 3.019 1.329 3.019 2.963 0 .792-.314 1.536-.884 2.096l-5.63 5.527c-1.143 1.12-3.133 1.119-4.272-.003L9 14.755A4.327 4.327 0 0012.056 16c1.153 0 2.235-.44 3.05-1.241l5.63-5.527A4.17 4.17 0 0022 6.236C22 3.9 20.064 2 17.685 2z" fill="#82B284"/></svg>