<svg width="20" height="20" fill="none" xmlns="http://www.w3.org/2000/svg"><path d="M17.919 16.493l-.893-11.255a1.407 1.407 0 00-1.396-1.293h-1.764v-.079A3.87 3.87 0 0010 0a3.87 3.87 0 00-3.866 3.866v.08H4.37c-.728 0-1.341.567-1.396 1.29L2.08 16.495c-.069.902.244 1.8.858 2.462A3.266 3.266 0 005.328 20h9.344c.904 0 1.775-.38 2.39-1.044.614-.663.926-1.56.857-2.463zM7.305 3.866A2.698 2.698 0 0110 1.171a2.698 2.698 0 012.694 2.695v.08H7.305v-.08zm8.897 14.294c-.4.431-.943.668-1.53.668H5.327c-.587 0-1.13-.237-1.53-.668-.399-.43-.594-.99-.549-1.575l.893-11.257a.23.23 0 01.229-.211h1.764V6.56a.586.586 0 001.171 0V5.117h5.39V6.56a.586.586 0 001.17 0V5.117h1.765a.23.23 0 01.228.212l.893 11.255a2.064 2.064 0 01-.55 1.576z" fill="#fff"/><path d="M12.64 9.933a.586.586 0 00-.83 0l-2.615 2.616-1.005-1.006a.586.586 0 10-.829.828l1.42 1.42a.584.584 0 00.829 0l3.03-3.03a.586.586 0 000-.828z" fill="#fff"/></svg>