<svg width="20" height="20" fill="none" xmlns="http://www.w3.org/2000/svg"><g clip-path="url(#clip0)" fill="#fff"><path d="M5.347 14.655a1.76 1.76 0 00-2.486 0 1.76 1.76 0 000 2.486 1.76 1.76 0 002.486 0 1.76 1.76 0 000-2.486zm-.829 1.657a.586.586 0 11-.828-.828.586.586 0 01.828.828z"/><path d="M18.546 13.456l-.011-.008-4.143-2.957-.794-.794a1.75 1.75 0 00-.471-.336l.42-.42c.528-.528 1.313-.798 2.208-.76a4.088 4.088 0 003.055-1.189 4.104 4.104 0 00.791-4.656.586.586 0 00-.945-.162l-1.333 1.343h-.84v-.838l1.344-1.333a.586.586 0 00-.16-.945 4.103 4.103 0 00-4.658.791 4.087 4.087 0 00-1.188 3.055c.038.896-.232 1.68-.76 2.208L10 7.515l-3.1-3.101-.785-2.355a.586.586 0 00-.294-.339L2.507.063a.586.586 0 00-.676.11L.174 1.83a.586.586 0 00-.11.677L1.72 5.82c.07.14.191.245.339.294l2.355.785 3.1 3.1-1.054 1.055c-.55.55-1.286.83-2.02.766-1.5-.13-2.905.546-3.757 1.809a4.104 4.104 0 00.028 4.577 4.105 4.105 0 006.292.591 4.087 4.087 0 001.188-3.055c-.037-.896.233-1.68.76-2.208l.167-.166c.083.17.194.33.335.47l.808.809 3.203 3.907a3.635 3.635 0 105.08-5.099zm-13.4-7.483a.586.586 0 00-.23-.141L2.661 5.08 1.3 2.36 2.36 1.3l2.72 1.36.751 2.256a.586.586 0 00.142.229l3.199 3.198-.829.83-3.199-3.2zm2.978 6.733c-.763.763-1.154 1.86-1.102 3.087a2.874 2.874 0 01-.846 2.177 2.93 2.93 0 01-4.52-3.685c.6-.89 1.596-1.39 2.684-1.296 1.08.093 2.154-.31 2.95-1.106l4.6-4.6c.762-.762 1.154-1.858 1.102-3.085a2.874 2.874 0 01.846-2.177 2.918 2.918 0 012.47-.819l-.823.817a.586.586 0 00-.173.416v1.668c0 .323.262.586.586.586h1.669a.586.586 0 00.416-.173l.817-.823a2.918 2.918 0 01-.819 2.47c-.58.581-1.353.882-2.177.847-1.227-.052-2.323.34-3.086 1.102l-4.594 4.594zm2.16.305a.587.587 0 01-.084-.723l1.845-1.845c.231-.144.53-.11.724.082l.414.415-2.486 2.485-.414-.414zm7.822 5.095a2.464 2.464 0 01-3.727-.284l-2.892-3.529 2.588-2.588 3.773 2.693a2.464 2.464 0 01.258 3.708z"/></g><defs><clipPath id="clip0"><path fill="#fff" d="M0 0h20v20H0z"/></clipPath></defs></svg>