<svg width="20" height="20" fill="none" xmlns="http://www.w3.org/2000/svg"><path d="M18.572 10.046a.49.49 0 00-.629-.292l-4.594 1.683 3.714-3.711a.489.489 0 000-.694L14.19 4.158a.49.49 0 00-.694 0l-3.642 3.64 2.043-4.846a.493.493 0 00-.262-.643L7.891.731a.49.49 0 00-.643.261L5.231 5.778V.682a.49.49 0 00-.49-.49H.49A.49.49 0 000 .682v18.636c0 .27.22.49.49.49h4.25c.06 0 .117-.012.17-.032.053.02.109.032.166.032.056 0 .113-.01.169-.03l14.433-5.288a.49.49 0 00.292-.629l-1.398-3.815zM2.9 18.827H.981V1.173h3.27v17.654H2.898zm7.904-15.804L8.015 9.635l-.505 1.198-.505 1.198-.863 2.046-.52 1.235-.391.927V8.303l2.73-6.478 2.842 1.198zM6.88 14.85l.521-1.236 1.443-3.422 4.998-4.995 2.18 2.18-4.864 4.861-1.65 1.65-3.84 3.836 1.212-2.874zm-.368 3.418l5.186-5.183 6.122-2.242 1.06 2.894L6.512 18.27z" fill="#fff"/><path d="M2.615 16.811c-.021 0-.041.005-.062.006a.703.703 0 00-.624.537.703.703 0 00.115.581.706.706 0 00.571.293.638.638 0 00.1-.01.7.7 0 00.602-.636c.002-.021.006-.041.006-.063a.707.707 0 00-.708-.708z" fill="#fff"/></svg>