<svg width="20" height="20" fill="none" xmlns="http://www.w3.org/2000/svg"><path d="M18.828 14.202v-1.858c0-1.93-.622-3.763-1.799-5.303a8.957 8.957 0 00-4.101-2.986 1.76 1.76 0 00-1.756-1.672H8.828c-.94 0-1.71.742-1.755 1.672A8.957 8.957 0 002.97 7.04a8.665 8.665 0 00-1.8 5.303v1.858A1.76 1.76 0 000 15.86c0 .97.789 1.758 1.758 1.758h16.484A1.76 1.76 0 0020 15.86a1.76 1.76 0 00-1.172-1.657zM2.344 12.344c0-2.113.902-4.091 2.383-5.502v1.986a.586.586 0 001.171 0V5.923c.37-.236.761-.442 1.172-.613V10a.586.586 0 001.172 0V4.49 4.14c0-.323.263-.586.586-.586h2.344c.323 0 .586.263.586.586V10a.586.586 0 001.172 0V5.31c.41.171.802.377 1.172.613v2.905a.586.586 0 101.171 0V6.842c1.48 1.41 2.383 3.389 2.383 5.502v1.758H2.344v-1.758zm15.898 4.101H1.758a.587.587 0 010-1.172h16.484a.587.587 0 010 1.172z" fill="#fff"/></svg>