<svg width="20" height="20" fill="none" xmlns="http://www.w3.org/2000/svg"><g clip-path="url(#clip0)"><path d="M19.664 8.94l-1.69-1.539V2.296a.588.588 0 00-.587-.588h-4.068a.588.588 0 00-.588.588v.328l-2.04-1.86a1.021 1.021 0 00-1.382 0L.336 8.941c-.315.287-.42.73-.266 1.128.155.398.53.655.957.655H2.46v8.193c0 .324.263.588.588.588h4.919a.588.588 0 00.588-.588v-4.974h2.89v4.974c0 .324.264.588.589.588h4.918a.588.588 0 00.588-.588v-8.193h1.434c.426 0 .802-.257.956-.655a1.02 1.02 0 00-.266-1.128zm-2.712.608a.588.588 0 00-.588.588v8.192h-3.742v-4.974a.588.588 0 00-.588-.588H7.967a.588.588 0 00-.589.588v4.974H3.636v-8.192a.588.588 0 00-.588-.588H1.416L10 1.726l2.923 2.664a.588.588 0 00.985-.435v-1.07h2.89V7.66c0 .166.07.323.192.435l1.594 1.452h-1.632z" fill="#fff"/></g><defs><clipPath id="clip0"><path fill="#fff" d="M0 0h20v20H0z"/></clipPath></defs></svg>